<?xml version="1.0" standalone="no"?><!DOCTYPE svg PUBLIC "-//W3C//DTD SVG 1.1//EN" "http://www.w3.org/Graphics/SVG/1.1/DTD/svg11.dtd"><svg t="1746063250407" class="icon" viewBox="0 0 1024 1024" version="1.1" xmlns="http://www.w3.org/2000/svg" p-id="9414" xmlns:xlink="http://www.w3.org/1999/xlink" width="200" height="200"><path d="M125 848.476V0h428.854c119.97 1.81 224.74 65.684 283.91 161.044-43.428-53.38-110.56-83.42-177.15-83.42-126.666 0-158.512 45.06-401.71 492.188C203.338 671.18 156.678 765.64 125 848.476zM897.544 1024l-192.792-381.744c165.482-85.564 237.506-294.492 139.888-469.45-76.192-77.376-234.63-94.294-276.13-0.362-39.924 93.158 62.32 196.478 112.748 195.346 47.076-2.126 32.172-70.028-6.078-152.46 41.12 77.564 60.16 110.76 54.2 137.24-7.516 34.114-56.244 56.978-152.004 148.66C407.282 664.088 236.642 1006.278 204.82 1024h692.724z" fill="#FF5370" p-id="9415"></path></svg>