<?xml version="1.0" standalone="no"?><!DOCTYPE svg PUBLIC "-//W3C//DTD SVG 1.1//EN" "http://www.w3.org/Graphics/SVG/1.1/DTD/svg11.dtd"><svg t="1745569643548" class="icon" viewBox="0 0 1024 1024" version="1.1" xmlns="http://www.w3.org/2000/svg" p-id="36781" xmlns:xlink="http://www.w3.org/1999/xlink" width="200" height="200"><path d="M103.258839 596.69471c57.013677 0 103.258839-43.272258 103.258838-96.619355 0-53.347097-46.245161-96.586323-103.258838-96.586323-57.04671 0-103.258839 43.272258-103.258839 96.586323 0 53.347097 46.245161 96.619355 103.258839 96.619355z" fill="#FF6309" p-id="36782"></path><path d="M825.608258 999.985548c57.04671 0 103.258839-43.272258 103.258839-96.586322 0-53.347097-46.245161-96.619355-103.258839-96.619355s-103.225806 43.272258-103.225806 96.619355c0 53.347097 46.245161 96.586323 103.225806 96.586322z" fill="#FFB515" p-id="36783"></path><path d="M584.836129 258.972903c125.423484 0 229.508129 90.078968 246.750968 206.881032H1004.180645c-7.828645-91.763613-47.170065-177.317161-112.970322-244.769032a148.645161 148.645161 0 0 1-137.909678-3.435355c-44.032-24.576-69.565935-68.211613-72.010322-113.928258a437.941677 437.941677 0 0 0-96.454194-10.702451 431.40129 431.40129 0 0 0-179.2 38.515613l86.412387 144.780387a255.27329 255.27329 0 0 1 92.787613-17.341936z" fill="#FF6309" p-id="36784"></path><path d="M831.587097 534.197677c-17.176774 116.835097-121.294452 206.980129-246.750968 206.980129-32.801032 0-64.148645-6.144-92.820645-17.341935l-86.445419 144.780387a431.269161 431.269161 0 0 0 179.233032 38.515613c32.900129 0 65.271742-3.666581 96.520258-10.702452 2.411355-45.78271 27.978323-89.484387 72.010322-114.060387a148.546065 148.546065 0 0 1 137.975742-3.402322c65.734194-67.484903 105.042581-153.038452 112.838194-244.769033h-172.560516z" fill="#C90016" p-id="36785"></path><path d="M335.541677 500.075355c0-76.833032 37.326452-145.341935 95.364129-189.539097L344.526452 165.788903c-20.413935 13.774452-39.572645 29.332645-57.310968 46.443355A402.564129 402.564129 0 0 0 181.677419 382.711742c39.770839 24.906323 66.064516 68.145548 66.064516 117.363613 0 49.218065-26.32671 92.45729-66.064516 117.363613a402.597161 402.597161 0 0 0 105.571097 170.446451c17.70529 17.143742 36.864 32.668903 57.244903 46.443355l86.412387-144.747355c-58.004645-44.164129-95.331097-112.706065-95.331096-189.506064z" fill="#FFB515" p-id="36786"></path><path d="M825.542194 193.23871c57.013677 0 103.225806-43.272258 103.225806-96.619355C928.768 43.239226 882.555871 0 825.542194 0s-103.258839 43.272258-103.258839 96.619355c0 53.347097 46.245161 96.586323 103.258839 96.586322z" fill="#C90016" p-id="36787"></path></svg>