<?xml version="1.0" standalone="no"?><!DOCTYPE svg PUBLIC "-//W3C//DTD SVG 1.1//EN" "http://www.w3.org/Graphics/SVG/1.1/DTD/svg11.dtd"><svg t="1745511246344" class="icon" viewBox="0 0 1024 1024" version="1.1" xmlns="http://www.w3.org/2000/svg" p-id="21763" xmlns:xlink="http://www.w3.org/1999/xlink" width="200" height="200"><path d="M757.312 275.52m18.176 0l34.752 0q18.176 0 18.176 18.176l0 0q0 18.176-18.176 18.176l-34.752 0q-18.176 0-18.176-18.176l0 0q0-18.176 18.176-18.176Z" fill="#89DDFF" p-id="21764"></path><path d="M224 857.6m18.176 0l176.96 0q18.176 0 18.176 18.176l0 0q0 18.176-18.176 18.176l-176.96 0q-18.176 0-18.176-18.176l0 0q0-18.176 18.176-18.176Z" fill="#FC8289" p-id="21765"></path><path d="M650.688 566.592m18.176 0l105.856 0q18.176 0 18.176 18.176l0 0q0 18.176-18.176 18.176l-105.856 0q-18.176 0-18.176-18.176l0 0q0-18.176 18.176-18.176Z" fill="#9883EC" p-id="21766"></path><path d="M437.312 566.592m18.176 0l141.44 0q18.176 0 18.176 18.176l0 0q0 18.176-18.176 18.176l-141.44 0q-18.176 0-18.176-18.176l0 0q0-18.176 18.176-18.176Z" fill="#FC8289" p-id="21767"></path><path d="M224 566.592m18.176 0l141.44 0q18.176 0 18.176 18.176l0 0q0 18.176-18.176 18.176l-141.44 0q-18.176 0-18.176-18.176l0 0q0-18.176 18.176-18.176Z" fill="#89DDFF" p-id="21768"></path><path d="M224 712.064m18.176 0l176.96 0q18.176 0 18.176 18.176l0 0q0 18.176-18.176 18.176l-176.96 0q-18.176 0-18.176-18.176l0 0q0-18.176 18.176-18.176Z" fill="#9883EC" p-id="21769"></path><path d="M224 421.056m18.176 0l176.96 0q18.176 0 18.176 18.176l0 0q0 18.176-18.176 18.176l-176.96 0q-18.176 0-18.176-18.176l0 0q0-18.176 18.176-18.176Z" fill="#9883EC" p-id="21770"></path><path d="M401.792 202.752m18.176 0l354.752 0q18.176 0 18.176 18.176l0 0q0 18.176-18.176 18.176l-354.752 0q-18.176 0-18.176-18.176l0 0q0-18.176 18.176-18.176Z" fill="#FFCB6B" p-id="21771"></path><path d="M224 202.752m18.176 0l105.856 0q18.176 0 18.176 18.176l0 0q0 18.176-18.176 18.176l-105.856 0q-18.176 0-18.176-18.176l0 0q0-18.176 18.176-18.176Z" fill="#FC8289" p-id="21772"></path><path d="M366.208 784.832m18.176 0l34.752 0q18.176 0 18.176 18.176l0 0q0 18.176-18.176 18.176l-34.752 0q-18.176 0-18.176-18.176l0 0q0-18.176 18.176-18.176Z" fill="#FFCB6B" p-id="21773"></path><path d="M366.208 348.288m18.176 0l34.752 0q18.176 0 18.176 18.176l0 0q0 18.176-18.176 18.176l-34.752 0q-18.176 0-18.176-18.176l0 0q0-18.176 18.176-18.176Z" fill="#89DDFF" p-id="21774"></path><path d="M224 784.832m18.176 0l70.336 0q18.176 0 18.176 18.176l0 0q0 18.176-18.176 18.176l-70.336 0q-18.176 0-18.176-18.176l0 0q0-18.176 18.176-18.176Z" fill="#89DDFF" p-id="21775"></path><path d="M224 348.288m18.176 0l70.336 0q18.176 0 18.176 18.176l0 0q0 18.176-18.176 18.176l-70.336 0q-18.176 0-18.176-18.176l0 0q0-18.176 18.176-18.176Z" fill="#FFCB6B" p-id="21776"></path><path d="M508.416 493.824m18.176 0l283.648 0q18.176 0 18.176 18.176l0 0q0 18.176-18.176 18.176l-283.648 0q-18.176 0-18.176-18.176l0 0q0-18.176 18.176-18.176Z" fill="#89DDFF" p-id="21777"></path><path d="M330.688 493.824m18.176 0l105.856 0q18.176 0 18.176 18.176l0 0q0 18.176-18.176 18.176l-105.856 0q-18.176 0-18.176-18.176l0 0q0-18.176 18.176-18.176Z" fill="#FFCB6B" p-id="21778"></path><path d="M224 493.824m18.176 0l34.752 0q18.176 0 18.176 18.176l0 0q0 18.176-18.176 18.176l-34.752 0q-18.176 0-18.176-18.176l0 0q0-18.176 18.176-18.176Z" fill="#FC8289" p-id="21779"></path><path d="M544 275.52m18.176 0l141.44 0q18.176 0 18.176 18.176l0 0q0 18.176-18.176 18.176l-141.44 0q-18.176 0-18.176-18.176l0 0q0-18.176 18.176-18.176Z" fill="#9883EC" p-id="21780"></path><path d="M224 275.52m18.176 0l248.064 0q18.176 0 18.176 18.176l0 0q0 18.176-18.176 18.176l-248.064 0q-18.176 0-18.176-18.176l0 0q0-18.176 18.176-18.176Z" fill="#89DDFF" p-id="21781"></path><path d="M330.688 639.296m18.176 0l319.232 0q18.176 0 18.176 18.176l0 0q0 18.176-18.176 18.176l-319.232 0q-18.176 0-18.176-18.176l0 0q0-18.176 18.176-18.176Z" fill="#FFCB6B" p-id="21782"></path><path d="M224 639.296m18.176 0l34.752 0q18.176 0 18.176 18.176l0 0q0 18.176-18.176 18.176l-34.752 0q-18.176 0-18.176-18.176l0 0q0-18.176 18.176-18.176Z" fill="#9883EC" p-id="21783"></path><path d="M650.688 348.288m18.176 0l176.96 0q18.176 0 18.176 18.176l0 0q0 18.176-18.176 18.176l-176.96 0q-18.176 0-18.176-18.176l0 0q0-18.176 18.176-18.176Z" fill="#FC8289" p-id="21784"></path><path d="M650.688 421.056m18.176 0l176.96 0q18.176 0 18.176 18.176l0 0q0 18.176-18.176 18.176l-176.96 0q-18.176 0-18.176-18.176l0 0q0-18.176 18.176-18.176Z" fill="#FFCB6B" p-id="21785"></path><path d="M224 130.048m18.176 0l425.856 0q18.176 0 18.176 18.176l0 0q0 18.176-18.176 18.176l-425.856 0q-18.176 0-18.176-18.176l0 0q0-18.176 18.176-18.176Z" fill="#89DDFF" p-id="21786"></path></svg>