<?xml version="1.0" standalone="no"?><!DOCTYPE svg PUBLIC "-//W3C//DTD SVG 1.1//EN" "http://www.w3.org/Graphics/SVG/1.1/DTD/svg11.dtd"><svg t="1745511044353" class="icon" viewBox="0 0 1024 1024" version="1.1" xmlns="http://www.w3.org/2000/svg" p-id="18759" xmlns:xlink="http://www.w3.org/1999/xlink" width="200" height="200"><path d="M540.8 832c69.12-69.76 35.2-147.2 17.92-223.36 0-10.24-10.24-7.68-16.64-10.24a384 384 0 0 1-176.64-135.68c-20.48-24.32-7.68-58.24 23.04-76.16 16-10.24 33.28-19.2 52.48-30.72a110.72 110.72 0 0 0-49.92 8.96c-45.44 10.88-64 0-71.04-42.88a106.88 106.88 0 0 1 75.52-128A23.04 23.04 0 0 0 405.76 192a88.96 88.96 0 0 0-27.52-128c-17.28-5.12-33.92-12.16-40.32 19.84s-33.92 10.88-56.96 16c77.44-64 128-60.16 192 3.84a128 128 0 0 0 78.72 39.04c4.48 0 11.52-3.84 11.52 8.32s-3.84 8.32-7.68 12.16c-23.04 23.68-43.52 9.6-60.16-6.4s-32-39.04-52.48-56.96a223.36 223.36 0 0 0 12.8 36.48c16 28.8 0 56.96 0 85.12 0 10.24-9.6 16.64-24.32 16.64A55.04 55.04 0 0 0 384 315.52a39.68 39.68 0 0 0 48 19.2 186.88 186.88 0 0 1 134.4 32h-32.64A78.08 78.08 0 0 0 451.84 448a103.68 103.68 0 0 0 68.48 116.48c21.12 7.68 37.76 11.52 42.24-21.12A923.52 923.52 0 0 0 565.12 448c0-10.24 0-20.48 10.88-24.32s17.28 4.48 23.68 10.88a140.8 140.8 0 0 1 0 157.44c-14.72 13.44-8.32 28.16-7.04 40.32a442.24 442.24 0 0 0 14.72 94.08c31.36-29.44 8.32-64 10.24-101.12 10.24 23.68 17.28 40.96 24.32 58.88a51.84 51.84 0 0 1-7.04 59.52 471.04 471.04 0 0 0-48.64 144.64 64 64 0 0 0 0 64c8.96 12.8-3.84 17.28-12.8 17.28H448c-16 0-17.28-8.96-7.04-19.2s101.12-119.68 111.36-128c0 0 10.24 0 3.2 13.44-21.12 35.2-85.12 106.88-87.68 113.28s0 0 4.48 0c25.6 0 58.24 10.24 76.16 0s14.08-47.36 20.48-72.32 8.32-39.04 14.08-58.88c-17.28 4.48-23.04 26.88-42.24 14.08z" fill="#040000" p-id="18760"></path><path d="M780.8 690.56a899.84 899.84 0 0 0-71.04-131.84c-5.12-8.96-9.6-17.92-14.08-26.88s4.48-3.2 7.68 0A1628.8 1628.8 0 0 1 819.2 704l14.72-23.04c-21.12 49.92 19.2 80.64 34.56 117.12 10.88 25.6-19.2 34.56-14.72 55.68a24.96 24.96 0 0 1-10.24-10.24c-5.12-17.92-8.96-35.84-14.72-53.76a55.68 55.68 0 0 0-16-30.08c-5.12 36.48-10.88 71.68 24.96 96.64 4.48 0 7.04 8.96 0 12.16s-21.12 14.08-30.72 0a56.32 56.32 0 0 1-16-35.84 303.36 303.36 0 0 1 9.6-92.8c7.04-20.48-8.96-38.4-21.12-55.04z" fill="#050201" p-id="18761"></path><path d="M780.16 689.28c0 12.8-8.96 17.92-17.92 23.68s-19.84-5.76-20.48 10.88a41.6 41.6 0 0 0 16.64 34.56 64 64 0 0 0 19.2 8.96c10.88 5.12 6.4 11.52 3.84 20.48s-10.24 4.48-15.36 0a40.96 40.96 0 0 1-30.72-28.16 146.56 146.56 0 0 1-3.84-90.88c7.04-19.2 16.64-17.92 27.52-3.2s11.52 17.28 21.76 21.76z" fill="#080606" p-id="18762"></path><path d="M714.88 627.84a174.72 174.72 0 0 0-20.48 140.16c-33.92-35.84-18.56-87.68-44.16-128 17.28 3.84 16 19.2 24.32 29.44 13.44-14.08 17.28-35.2 40.32-41.6z" fill="#090706" p-id="18763"></path><path d="M680.32 512l-83.2-107.52a323.84 323.84 0 0 1 88.32 100.48c3.84 7.04 0 7.04-5.12 7.04z" fill="#13110F" p-id="18764"></path><path d="M680.32 512l5.12-7.04 18.56 26.24h-7.68a35.84 35.84 0 0 1-16-19.2z" fill="#2E2925" p-id="18765"></path><path d="M596.48 502.4a45.44 45.44 0 0 1-3.84 67.2c-8.32-23.04 6.4-40.96 3.84-67.2z" fill="#FEFEFE" p-id="18766"></path><path d="M373.12 340.48c-24.32-20.48-26.88-39.68-10.24-69.12 3.2 25.6-3.84 48.64 10.24 69.12z" fill="#FFFFFF" p-id="18767"></path><path d="M423.04 419.84a32 32 0 0 1 0 27.52c-5.76-9.6-2.56-17.92 0-27.52z" fill="#F6F5F5" p-id="18768"></path><path d="M747.52 685.44s0-8.96 5.12-6.4a17.92 17.92 0 0 1 7.68 8.96c0 4.48 0 7.04-7.68 6.4s-5.76-3.84-5.12-8.96z" fill="#FFFFFF" p-id="18769"></path></svg>