<?xml version="1.0" standalone="no"?><!DOCTYPE svg PUBLIC "-//W3C//DTD SVG 1.1//EN" "http://www.w3.org/Graphics/SVG/1.1/DTD/svg11.dtd"><svg t="1745572270548" class="icon" viewBox="0 0 1024 1024" version="1.1" xmlns="http://www.w3.org/2000/svg" p-id="26694" xmlns:xlink="http://www.w3.org/1999/xlink" width="200" height="200"><path d="M517.44 890.944c83.84-299.136 81.408-300.544 142.016-513.856l14.528 8.384c7.936 4.608 14.4 0.832 14.4-8.256v-101.76c16.064-56.192 28.672-99.584 32.384-112.64h65.6l109.056 100.8-71.616 61.76 54.144 58.496-356.864 507.072c-1.728 2.88-4.16 2.24-3.648 0z" fill="#6B7394" p-id="26695"></path><path d="M665.28 188.352l-97.024 55.936a10.496 10.496 0 0 1 1.856 5.76v52.16c0 2.752-1.088 5.12-2.816 7.104l97.92 56.512c6.72 3.84 12.16 0.64 12.16-7.04V195.392c0-7.68-5.44-10.88-12.16-7.04z m-210.688 113.92v-52.16c0-2.176 0.704-4.16 1.856-5.824l-97.024-55.936c-6.656-3.84-12.16-0.64-12.16 7.04v163.392c0 7.68 5.504 10.88 12.16 7.04l97.92-56.512a10.688 10.688 0 0 1-2.752-7.04z m101.888-56.192c3.2 0 5.824 1.792 5.824 3.968v52.16c0 2.176-2.624 3.968-5.824 3.968H468.288c-3.2 0-5.888-1.728-5.888-3.968v-52.16c0-2.176 2.624-3.968 5.888-3.968h88.192z" fill="#FC8289" p-id="26696"></path><path d="M503.424 890.944h3.584C423.232 591.808 425.664 590.464 365.056 377.152l-14.592 8.384c-7.872 4.608-14.336 0.832-14.336-8.256v-101.76l-32.384-112.64H238.08L129.024 263.552l71.68 61.76-54.208 58.496 356.928 507.072z" fill="#6B7394" p-id="26697"></path><path d="M509.568 415.104a26.432 26.432 0 1 0 0.064-52.928 26.432 26.432 0 0 0 0 52.928zM509.568 572.16a26.432 26.432 0 1 0 0.064-52.864 26.432 26.432 0 0 0 0 52.928zM509.568 729.344a26.432 26.432 0 1 0 0.064-52.864 26.432 26.432 0 0 0 0 52.864z" fill="#8E95B4" p-id="26698"></path></svg>