<?xml version="1.0" standalone="no"?><!DOCTYPE svg PUBLIC "-//W3C//DTD SVG 1.1//EN" "http://www.w3.org/Graphics/SVG/1.1/DTD/svg11.dtd"><svg t="1745510893621" class="icon" viewBox="0 0 1024 1024" version="1.1" xmlns="http://www.w3.org/2000/svg" p-id="17658" xmlns:xlink="http://www.w3.org/1999/xlink" width="200" height="200"><path d="M512 512m-512 0a512 512 0 1 0 1024 0 512 512 0 1 0-1024 0Z" fill="#6190E8" p-id="17659"></path><path d="M422.528 500.138667c15.786667 53.76-55.168 38.058667-82.773333 88.96-17.365333 32 13.056 84.650667 43.946666 93.354666 81.749333 22.997333 111.786667-30.208 111.786667-74.666666 0-85.930667-20.053333-259.456 48.725333-314.197334 60.672-48.213333 134.314667-48.213333 201.045334-10.453333 38.997333 22.101333 67.328 73.344 65.28 119.68-4.437333 98.858667-118.016 189.952-160.768 128.426667-35.413333-50.901333 99.413333-67.712 84.053333-135.978667-17.92-79.616-108.672-64.085333-140.373333-35.114667-45.653333 41.813333 4.693333 191.317333-31.317334 314.88-41.941333 72.96-104.96 95.445333-159.274666 92.586667-29.525333-1.493333-56.448-10.581333-75.946667-23.125333-44.202667-28.373333-99.413333-135.253333-53.802667-206.293334 41.088-64 133.632-91.818667 149.418667-38.058666z" fill="#FFFFFF" p-id="17660"></path></svg>