<?xml version="1.0" standalone="no"?><!DOCTYPE svg PUBLIC "-//W3C//DTD SVG 1.1//EN" "http://www.w3.org/Graphics/SVG/1.1/DTD/svg11.dtd"><svg t="1745510580642" class="icon" viewBox="0 0 1024 1024" version="1.1" xmlns="http://www.w3.org/2000/svg" p-id="4539" xmlns:xlink="http://www.w3.org/1999/xlink" width="200" height="200"><path d="M909.135726 672.024137c-37.380389 80.36864-95.463863 176.931109-186.256091 255.34464-90.79296 78.429623-185.593417 80.36864-227.24096 81.015223-41.647543 0.646583-163.324343 2.715063-283.449051-148.406857C85.793646 700.968229 118.729874 400.258926 118.729874 400.258926l52.071131 75.181349c64.078994-225.544046 263.684389-357.531794 263.684389-357.531794L409.791634 15.512137c184.914651 86.187154 339.786606 310.438034 339.786606 310.438034l19.360914-61.573851c0 0 42.730057 107.584366 56.07936 153.59488 13.348571 46.010514 22.689646 98.517577 26.0352 145.174674s-4.670903 125.733303-4.670903 125.733303L909.135726 672.024137zM344.209554 371.47648c0 0-62.300891 63.093029-64.96768 121.854537 0 0 25.809189-51.86048 48.951589-70.866651l28.475977 35.42528C356.66944 457.889646 344.209554 404.315429 344.209554 371.47648zM331.555109 556.973349c-63.83616 10.682514-103.155566 89.289874-87.835063 175.589669 15.304411 86.300526 79.479954 147.59936 143.316846 136.916114 63.820069-10.681783 103.156297-89.289874 87.835063-175.589669C459.55072 607.589669 395.392 546.290834 331.555109 556.973349zM483.630811 262.71232c0 0-5.348937 57.678994-22.027703 84.89472 0 0 22.689646-18.148937 36.378331-40.823223 0 0 40.839314 33.37216 42.939977 38.883474C540.922149 345.667291 523.338606 294.792046 483.630811 262.71232zM503.994514 430.884571c0 0-32.01536 28.928-29.833509 135.881874 0 0 12.475977-65.662537 28.492069-81.225874 0 0 27.587291 26.779063 38.269806 30.253349C540.922149 515.794651 513.222217 458.536229 503.994514 430.884571zM668.255086 556.973349c-63.83616-10.682514-127.995611 50.61632-143.316114 136.916114-15.320503 86.300526 24.014994 164.907886 87.835063 175.589669 63.83616 10.682514 127.995611-50.61632 143.316114-136.916114C771.411383 646.263223 732.091246 567.655863 668.255086 556.973349zM610.624366 849.165166c-55.432046-9.275977-91.148434-68.635794-79.803246-132.601417 11.36128-63.965623 65.4848-108.295314 120.916846-99.018606 55.416686 9.259886 91.148434 68.635794 79.787154 132.585326C720.180663 814.112183 666.041783 858.425783 610.624366 849.165166zM611.562057 725.823634c-15.741074 0-28.492069 12.379429-28.492069 27.651657s12.750994 27.651657 28.492069 27.651657c15.724983 0 28.475977-12.379429 28.475977-27.651657S627.28704 725.823634 611.562057 725.823634zM389.072457 851.153189c-55.125577 9.2928-108.97408-35.150263-120.270994-99.293623-11.296183-64.127269 24.241737-123.664823 79.367314-132.956891 55.141669-9.2928 108.990171 35.150263 120.287086 99.293623C479.736686 782.338926 444.198034 841.860389 389.072457 851.153189zM388.248137 725.823634c-15.724983 0-28.475246 12.379429-28.475246 27.651657s12.750994 27.651657 28.475246 27.651657c15.741074 0 28.492069-12.379429 28.492069-27.651657S403.989211 725.823634 388.248137 725.823634z" p-id="4540" fill="#707070"></path></svg>