<?xml version="1.0" standalone="no"?><!DOCTYPE svg PUBLIC "-//W3C//DTD SVG 1.1//EN" "http://www.w3.org/Graphics/SVG/1.1/DTD/svg11.dtd"><svg t="1754034375511" class="icon" viewBox="0 0 1024 1024" version="1.1" xmlns="http://www.w3.org/2000/svg" p-id="1993" xmlns:xlink="http://www.w3.org/1999/xlink" width="200" height="200"><path d="M952.4096 302.7968H510.8864c-92.4672 0.128-161.856 39.8592-206.6944 121.3184-23.488 42.6752-30.9888 104.8576-17.3056 150.2464h89.9968c-8.8064-34.9568-9.7024-68.4416 1.6768-102.144 19.008-56.256 72.3072-97.9328 131.0592-98.1632 155.8016-0.6272 311.6032-0.2176 467.4176-0.192a69.0432 69.0432 0 0 1 6.8864 0.6528C1041.9968 544.6016 997.12 797.8624 782.3104 937.6768c-189.2224 123.1488-424.7168 91.8784-561.92-18.4832h17.2672c96.5504 0 193.1136 1.3824 289.6256-0.6144 102.6176-2.1248 191.0784-40.704 264.768-112.256 69.9264-67.904 108.1216-151.296 117.76-247.5904 2.7136-27.2256 0.4096-54.9632 0.4096-83.2h-74.7008c0 27.4816 2.8288 54.8352-0.4864 81.408C819.4432 682.0992 753.4464 770.56 637.312 821.3632c-41.984 18.3808-86.208 24.32-131.2768 24.4864-117.0944 0.5376-234.24 0-351.2832 0.4352-11.6736 0-20.0192-2.9056-26.4576-12.8-15.5904-23.9744-31.7568-47.5648-47.488-71.4496-2.56-3.84-3.9808-8.2816-7.0016-14.72h434.8032c93.504 0 163.1872-41.1136 206.9248-123.3408 23.2576-43.712 29.0816-91.3408 19.712-140.2496-0.6528-3.4176-5.4656-8.5248-8.4736-8.6144-23.2576-0.7168-46.5408-0.3968-71.3984-0.3968 7.5264 30.336 9.7536 58.9824 2.56 87.8208-14.6048 58.3808-66.9952 103.68-127.1808 109.44-13.2736 1.28-26.6496 2.0608-39.9872 2.0736-143.8592 0.1408-287.7184-0.1024-431.5776 0.3968-12.9792 0-17.92-4.2496-21.3888-16.3584C-44.48 374.464 142.3872 88.32 424.2048 38.4768c134.848-23.872 258.9568 3.5968 372.16 80.4736a32.7552 32.7552 0 0 1 11.3024 11.968h-14.9248c-100.8384 0.1792-201.7024-0.96-302.5024 0.9216-97.28 1.8176-182.6816 37.0432-254.08 102.6688-81.7792 75.1744-124.2368 169.4592-127.7824 280.6656-0.5248 16.64 0.8576 33.28 2.432 49.92 0.3328 3.648 5.0176 9.6256 8.0128 9.8304 15.232 1.0368 30.5536 0.5248 45.8496 0.5504H179.2c0-21.6064-1.088-41.92 0.1792-62.08C186.88 391.8464 242.9696 300.16 349.824 240.512c47.68-26.624 99.3664-38.4 153.7536-38.4768 124.2624-0.1408 248.5248 0 372.7872-0.256 9.1648 0 15.36 2.56 20.48 9.9456 19.7504 28.9536 39.68 57.7664 59.584 86.6304zM564.096 525.6064c0.2176-28.0064-20.48-50.3808-46.976-50.8416s-45.9392 19.9424-46.272 48.9216c-0.3328 28.3392 19.6736 51.6352 44.3776 51.6864 25.856 0.0512 48.6656-23.1808 48.8704-49.7664z" fill="#EE6052" p-id="1994"></path><path d="M816.64 132.6976c-123.0208 0.0768-357.12 3.84-342.2208 0.6912C234.8288 167.3088 91.1744 364.8 115.9552 574.272L22.2976 576C-30.8352 177.3056 443.3664-166.8608 816.64 132.6976z" p-id="1995"></path><path d="M887.9744 197.6448c30.3616 42.496 71.1936 95.872 73.1776 108.8896h-439.04c-160.704-14.2848-269.7856 135.1552-235.2256 267.8784l-107.7248 1.024c-12.8-165.12 72.8832-352.768 298.24-374.2208z" p-id="1996"></path><path d="M376.8832 574.4128l138.3424 0.96c-73.4848-16.2688-42.24-101.056 1.8944-100.608l487.7696 1.28c2.56-28.096-7.3856-65.28-21.4272-105.3056l-488.1792 2.6752c-98.7136 15.2064-145.0112 95.488-118.4 200.9984z" p-id="1997"></path></svg>