<svg width="50" height="50" viewBox="0 0 50 50" fill="none" xmlns="http://www.w3.org/2000/svg">
<g clip-path="url(#clip0_1_5)">
<path d="M25.9962 2C39.253 2 50 13.0179 50 26.6088C50 37.476 43.1309 46.6945 33.5989 49.955C32.3809 50.1949 31.9488 49.429 31.9488 48.7708C31.9488 47.9634 31.9789 45.3104 31.9789 42.0207C31.9789 39.7245 31.2107 38.2235 30.3496 37.4637C35.6961 36.8547 41.3082 34.7738 41.3082 25.3215C41.3082 22.6347 40.3811 20.4385 38.8419 18.7191C39.0895 18.0947 39.913 15.594 38.6034 12.2059C38.6034 12.2059 36.5917 11.543 32.0103 14.7281C30.0946 14.1821 28.0394 13.9084 26.0022 13.8991C23.962 13.9083 21.9084 14.1821 19.9942 14.7281C15.4083 11.5445 13.3936 12.2059 13.3936 12.2059C12.0885 15.5956 12.9105 18.0963 13.1581 18.7191C11.6219 20.4385 10.6873 22.6363 10.6873 25.3215C10.6873 34.7507 16.2903 36.8623 21.6203 37.4836C20.9333 38.0988 20.3152 39.183 20.0962 40.7733C18.728 41.4023 15.2522 42.4881 13.11 38.7278C13.11 38.7278 11.8424 36.3655 9.4347 36.1917C9.4347 36.1917 7.09151 36.1594 9.26971 37.6866C9.26971 37.6866 10.8434 38.4448 11.9355 41.287C11.9355 41.287 13.3457 46.0731 20.0212 44.5859C20.0318 46.6406 20.0528 48.1878 20.0528 48.7722C20.0528 49.4243 19.6147 50.1825 18.4147 49.958C8.8767 46.7022 2 37.4791 2 26.6088C2 13.0164 12.747 2 26.0007 2H25.9962Z" fill="black"/>
<path d="M38 25.5C41.3152 25.5 44.4947 26.8169 46.8389 29.1611C49.1831 31.5053 50.5 34.6848 50.5 38C50.5 41.3152 49.1831 44.4947 46.8389 46.8389C44.4947 49.1831 41.3152 50.5 38 50.5C34.6848 50.5 31.5053 49.1831 29.1611 46.8389C26.8169 44.4947 25.5 41.3152 25.5 38C25.5 34.6848 26.8169 31.5053 29.1611 29.1611C31.5053 26.8169 34.6848 25.5 38 25.5ZM38 28.75C35.5467 28.75 33.1937 29.7243 31.459 31.459C29.7243 33.1937 28.75 35.5467 28.75 38C28.75 40.4533 29.7243 42.8063 31.459 44.541C33.1937 46.2757 35.5467 47.25 38 47.25C40.4533 47.25 42.8063 46.2757 44.541 44.541C46.2757 42.8063 47.25 40.4533 47.25 38C47.25 35.5467 46.2757 33.1937 44.541 31.459C42.8063 29.7243 40.4533 28.75 38 28.75ZM35.502 33.2959C35.6163 33.3127 35.7265 33.3521 35.8262 33.4121L42.2217 37.25L42.2227 37.251C42.3193 37.3093 42.4035 37.3858 42.4707 37.4756L42.5322 37.5703L42.582 37.6709C42.6243 37.775 42.6455 37.8869 42.6455 38C42.6455 38.1506 42.6063 38.2985 42.5322 38.4297C42.4582 38.5609 42.3516 38.6711 42.2227 38.749L42.2217 38.75L35.8262 42.5879C35.6936 42.6677 35.5424 42.7106 35.3877 42.7129C35.2328 42.7151 35.0792 42.6768 34.9443 42.6006C34.8095 42.5244 34.6973 42.413 34.6191 42.2793C34.5412 42.1456 34.5001 41.9936 34.5 41.8389V34.1631C34.4998 34.0084 34.5405 33.8565 34.6182 33.7227L34.6826 33.626C34.7533 33.5346 34.8422 33.4578 34.9434 33.4004L35.0479 33.3506C35.1551 33.3073 35.2703 33.2856 35.3867 33.2871L35.502 33.2959Z" fill="black" stroke="white"/>
</g>
<defs>
<clipPath id="clip0_1_5">
<rect width="50" height="50" fill="white"/>
</clipPath>
</defs>
</svg>
