<svg width="50" height="50" viewBox="0 0 50 50" fill="none" xmlns="http://www.w3.org/2000/svg">
<path d="M24.9963 1.5625C37.9352 1.5625 48.4245 12.3222 48.4245 25.5945C48.4245 36.207 41.7201 45.2095 32.4167 48.3936C31.2278 48.6278 30.8062 47.8799 30.8062 47.2371C30.8062 46.4486 30.8355 43.8578 30.8355 40.6452C30.8355 38.4028 30.0857 36.937 29.2453 36.195C34.4636 35.6003 39.9411 33.5682 39.9411 24.3374C39.9411 21.7136 39.0362 19.5688 37.534 17.8897C37.7756 17.28 38.5794 14.8379 37.3012 11.5292C37.3012 11.5292 35.3377 10.8818 30.8661 13.9923C28.9964 13.4591 26.9904 13.1918 25.0022 13.1827C23.0108 13.1917 21.0064 13.4591 19.1382 13.9923C14.6622 10.8833 12.6958 11.5292 12.6958 11.5292C11.422 14.8395 12.2243 17.2815 12.4659 17.8897C10.9666 19.5688 10.0544 21.7151 10.0544 24.3374C10.0544 33.5456 15.5231 35.6077 20.7253 36.2145C20.0547 36.8152 19.4515 37.874 19.2377 39.4271C17.9023 40.0413 14.5099 41.1017 12.419 37.4295C12.419 37.4295 11.1818 35.1226 8.83184 34.9528C8.83184 34.9528 6.54483 34.9213 8.6708 36.4127C8.6708 36.4127 10.2067 37.1531 11.2727 39.9287C11.2727 39.9287 12.649 44.6026 19.1646 43.1503C19.1748 45.1568 19.1953 46.6678 19.1953 47.2385C19.1953 47.8753 18.7678 48.6157 17.5965 48.3965C8.28721 45.217 1.57539 36.2101 1.57539 25.5945C1.57539 12.3207 12.0647 1.5625 25.0007 1.5625H24.9963Z" fill="black"/>
<path d="M41.5 34.5C43.3565 34.5 45.1374 35.2371 46.4502 36.5498C47.7629 37.8626 48.5 39.6435 48.5 41.5L48.4912 41.8467C48.4055 43.577 47.681 45.2194 46.4502 46.4502C45.2194 47.681 43.577 48.4055 41.8467 48.4912L41.5 48.5C39.6435 48.5 37.8626 47.7629 36.5498 46.4502C35.2371 45.1374 34.5 43.3565 34.5 41.5C34.5 39.6435 35.2371 37.8626 36.5498 36.5498C37.8626 35.2371 39.6435 34.5 41.5 34.5ZM41.5 36.7188C40.2319 36.7188 39.0158 37.2225 38.1191 38.1191C37.2225 39.0158 36.7188 40.2319 36.7188 41.5C36.7188 42.7681 37.2225 43.9842 38.1191 44.8809C39.0158 45.7775 40.2319 46.2812 41.5 46.2812C42.7681 46.2812 43.9842 45.7775 44.8809 44.8809C45.7775 43.9842 46.2812 42.7681 46.2812 41.5C46.2812 40.2319 45.7775 39.0158 44.8809 38.1191C43.9842 37.2225 42.7681 36.7188 41.5 36.7188ZM40.0869 38.7178C40.2116 38.7194 40.3346 38.754 40.4414 38.8184H40.4404L43.9043 40.8975L43.9062 40.8984C43.9839 40.9454 44.0515 41.0068 44.1055 41.0791L44.1553 41.1543L44.1943 41.2363C44.2281 41.3198 44.2451 41.4094 44.2451 41.5C44.2451 41.621 44.2147 41.7403 44.1553 41.8457C44.0958 41.951 44.0097 42.039 43.9062 42.1016L43.9043 42.1025L40.4404 44.1807C40.3338 44.2449 40.2124 44.2805 40.0879 44.2822C39.9635 44.284 39.8408 44.2526 39.7324 44.1914C39.624 44.1302 39.5335 44.0411 39.4707 43.9336C39.408 43.8261 39.3751 43.7035 39.375 43.5791V39.4219C39.3748 39.2978 39.4075 39.1758 39.4697 39.0684L39.5215 38.9912C39.5784 38.9175 39.6499 38.8558 39.7314 38.8096L39.8154 38.7686C39.9014 38.7339 39.9937 38.7166 40.0869 38.7178Z" fill="black" stroke="white"/>
</svg>
