<?xml version="1.0" standalone="no"?><!DOCTYPE svg PUBLIC "-//W3C//DTD SVG 1.1//EN" "http://www.w3.org/Graphics/SVG/1.1/DTD/svg11.dtd"><svg t="1745561699509" class="icon" viewBox="0 0 1024 1024" version="1.1" xmlns="http://www.w3.org/2000/svg" p-id="17854" xmlns:xlink="http://www.w3.org/1999/xlink" width="200" height="200"><path d="M0 0m128 0l768 0q128 0 128 128l0 768q0 128-128 128l-768 0q-128 0-128-128l0-768q0-128 128-128Z" fill="#FF6A00" p-id="17855"></path><path d="M458.88 256l-18.24 75.936-173.952 38.56c-15.808 3.744-26.752 17.44-27.968 34.88v191.68c0 17.408 12.16 31.104 27.968 34.816l173.952 37.344 18.24 75.936H256.96c-70.56 0-128.96-59.744-128.96-131.936v-226.528C128 314.496 185.184 256 256.96 256h201.92z m331.904 0c70.304 0 127.264 58.336 128.48 130.368v227.2c0 73.216-58.176 131.584-128.48 131.584h-202.4l18.176-75.744 173.312-38.464c15.776-3.744 26.688-17.408 27.904-34.784v-191.168c0-17.408-12.16-31.04-27.904-34.784l-173.312-38.464L588.384 256z m-188.032 244.576v14.4h-158.24v-14.4h158.24z" fill="#FFFFFF" p-id="17856"></path></svg>