<?xml version="1.0" standalone="no"?><!DOCTYPE svg PUBLIC "-//W3C//DTD SVG 1.1//EN" "http://www.w3.org/Graphics/SVG/1.1/DTD/svg11.dtd"><svg t="1745511568246" class="icon" viewBox="0 0 1024 1024" version="1.1" xmlns="http://www.w3.org/2000/svg" p-id="30805" xmlns:xlink="http://www.w3.org/1999/xlink" width="200" height="200"><path d="M979.461567 766.56018a213.093363 213.093363 0 1 1-426.186726 0.063992 213.093363 213.093363 0 0 1 426.186726-0.063992z m-205.030371 164.971379l79.670041-178.793651a8.830896 8.830896 0 0 0-8.062992-12.414448h-34.363704a8.830896 8.830896 0 0 1-8.830896-8.830897V605.172353a8.830896 8.830896 0 0 0-8.766905-8.830896h-55.865016a8.766904 8.766904 0 0 0-8.766905 8.830896v126.384202a8.830896 8.830896 0 0 1-8.766904 8.830897h-33.979752c-6.3992 0-10.622672 6.591176-8.062992 12.414448l79.670041 178.793651a8.830896 8.830896 0 0 0 16.125984-0.063992z" fill="#4687F0" p-id="30806"></path><path d="M526.846144 859.988501l-91.508561 158.764155a512.127984 512.127984 0 0 1-435.145607-506.304712c0-91.572553 23.67704-177.321835 65.271841-251.552556l209.253843 362.32271a262.687164 262.687164 0 0 0 234.850644 151.085114c0.63992 29.948256 6.3992 58.808649 17.27784 85.685289z" fill="#0E9C58" p-id="30807"></path><path d="M697.704787 512.383952v6.3992a255.968004 255.968004 0 0 0-179.177603 178.601675c-1.91976 0.63992-4.47944 0.63992-6.3992 0.63992a186.024747 186.024747 0 0 1 0-371.92151c102.387202 0 185.576803 83.189601 185.576803 186.280715z" fill="#4687F0" p-id="30808"></path><path d="M570.360705 932.939383c24.31696 29.43632 55.033121 53.113361 90.868641 68.471441-45.434321 14.07824-93.428321 21.75728-143.342082 22.3972l52.473441-90.868641zM1024.063992 512.383952c0 52.473441-7.67904 103.027122-22.3972 150.445194a254.88014 254.88014 0 0 0-227.811524-153.004874 262.495188 262.495188 0 0 0-78.710161-185.000875h293.723284c22.3972 58.232721 35.195601 121.008874 35.195601 187.560555z" fill="#FECC41" p-id="30809"></path><path d="M258.271716 446.664167L111.730034 192.743907A510.912136 510.912136 0 0 1 511.936008 0a511.616048 511.616048 0 0 1 440.456943 251.04062H534.71716a262.431196 262.431196 0 0 0-276.445444 195.623547z" fill="#D8453D" p-id="30810"></path></svg>